<svg width="37" height="36" viewBox="0 0 37 36" fill="none" xmlns="http://www.w3.org/2000/svg">
<path fill-rule="evenodd" clip-rule="evenodd" d="M6.5293 10.4658C6.5293 9.3718 6.96389 8.32259 7.73748 7.549C8.51107 6.77542 9.56028 6.34082 10.6543 6.34082H26.4043C26.946 6.34082 27.4824 6.44752 27.9829 6.65482C28.4833 6.86212 28.9381 7.16596 29.3211 7.549C29.7042 7.93205 30.008 8.38678 30.2153 8.88725C30.4226 9.38772 30.5293 9.92412 30.5293 10.4658V18.7158C30.5295 18.9411 30.4621 19.1613 30.3358 19.3478C30.2094 19.5343 30.03 19.6787 29.8207 19.762C29.6114 19.8454 29.3819 19.8641 29.1619 19.8155C28.9419 19.767 28.7416 19.6535 28.5868 19.4898L24.5908 15.2733C24.4141 15.0551 24.1907 14.8794 23.937 14.7591C23.6833 14.6389 23.4058 14.5771 23.1251 14.5784C22.8443 14.5797 22.5674 14.644 22.3149 14.7666C22.0623 14.8892 21.8405 15.067 21.6658 15.2868L21.6553 15.2973L21.6538 15.3003C21.5158 15.4773 19.8478 17.6373 18.3928 19.4958L19.7323 20.9538C19.8323 21.0627 19.9098 21.1901 19.9605 21.3289C20.0112 21.4677 20.0341 21.6152 20.0278 21.7628C20.0216 21.9104 19.9863 22.0554 19.924 22.1894C19.8617 22.3234 19.7736 22.4439 19.6648 22.5438C19.556 22.6438 19.4285 22.7213 19.2897 22.7721C19.1509 22.8228 19.0035 22.8456 18.8558 22.8394C18.7082 22.8331 18.5632 22.7978 18.4292 22.7355C18.2952 22.6732 18.1748 22.5852 18.0748 22.4763L16.2538 20.4948C16.1225 20.4011 16.0121 20.2811 15.9298 20.1423L15.5788 19.7613C15.4005 19.5449 15.176 19.3713 14.9217 19.2531C14.6674 19.135 14.3899 19.0754 14.1095 19.0787C13.8292 19.082 13.5531 19.1481 13.3017 19.2723C13.0503 19.3964 12.8299 19.5753 12.6568 19.7958L8.7793 24.7308V26.2158C8.7793 27.2508 9.6193 28.0908 10.6543 28.0908H17.4043C17.7027 28.0908 17.9888 28.2093 18.1998 28.4203C18.4108 28.6313 18.5293 28.9175 18.5293 29.2158C18.5293 29.5142 18.4108 29.8003 18.1998 30.0113C17.9888 30.2223 17.7027 30.3408 17.4043 30.3408H10.6543C9.56028 30.3408 8.51107 29.9062 7.73748 29.1326C6.96389 28.359 6.5293 27.3098 6.5293 26.2158V10.4658ZM8.7793 21.0888L10.8883 18.4038C11.2334 17.9647 11.6641 17.6003 12.1543 17.3326C12.6444 17.0649 13.1839 16.8996 13.7398 16.8465C14.2958 16.7935 14.8567 16.854 15.3887 17.0242C15.9206 17.1944 16.4124 17.4709 16.8343 17.8368C18.2368 16.0413 19.7593 14.0733 19.8748 13.9218L19.8793 13.9173L19.8943 13.8978L19.8988 13.8918C20.2749 13.4173 20.7508 13.0314 21.2929 12.7615C21.8349 12.4916 22.4296 12.3444 23.035 12.3302C23.6403 12.316 24.2413 12.4353 24.7954 12.6795C25.3494 12.9237 25.8429 13.2869 26.2408 13.7433L28.2793 15.8928V10.4658C28.2793 9.43082 27.4393 8.59082 26.4043 8.59082H10.6543C9.6193 8.59082 8.7793 9.43082 8.7793 10.4658V21.0888ZM26.0293 21.3408C26.3277 21.3408 26.6138 21.4593 26.8248 21.6703C27.0358 21.8813 27.1543 22.1675 27.1543 22.4658V24.7158H29.4043C29.7027 24.7158 29.9888 24.8343 30.1998 25.0453C30.4108 25.2563 30.5293 25.5425 30.5293 25.8408C30.5293 26.1392 30.4108 26.4253 30.1998 26.6363C29.9888 26.8473 29.7027 26.9658 29.4043 26.9658H27.1543V29.2158C27.1543 29.5142 27.0358 29.8003 26.8248 30.0113C26.6138 30.2223 26.3277 30.3408 26.0293 30.3408C25.7309 30.3408 25.4448 30.2223 25.2338 30.0113C25.0228 29.8003 24.9043 29.5142 24.9043 29.2158V26.9658H22.6543C22.3559 26.9658 22.0698 26.8473 21.8588 26.6363C21.6478 26.4253 21.5293 26.1392 21.5293 25.8408C21.5293 25.5425 21.6478 25.2563 21.8588 25.0453C22.0698 24.8343 22.3559 24.7158 22.6543 24.7158H24.9043V22.4658C24.9043 22.1675 25.0228 21.8813 25.2338 21.6703C25.4448 21.4593 25.7309 21.3408 26.0293 21.3408Z" fill="white" fill-opacity="0.9"/>
</svg>
