<svg width="16" height="29" viewBox="0 0 16 29" fill="none" xmlns="http://www.w3.org/2000/svg">
<path d="M7.50383 28.3712C7.89435 28.7617 8.52752 28.7617 8.91804 28.3712L15.282 22.0072C15.6725 21.6167 15.6725 20.9835 15.282 20.593C14.8915 20.2025 14.2583 20.2025 13.8678 20.593L8.21094 26.2499L2.55408 20.593C2.16356 20.2025 1.53039 20.2025 1.13987 20.593C0.749344 20.9835 0.749344 21.6167 1.13987 22.0072L7.50383 28.3712ZM8.21094 0.682617L7.21094 0.682617L7.21094 27.6641L8.21094 27.6641L9.21094 27.6641L9.21094 0.682617L8.21094 0.682617Z" fill="black" fill-opacity="0.12"/>
<path d="M7.50383 28.3712C7.89435 28.7617 8.52752 28.7617 8.91804 28.3712L15.282 22.0072C15.6725 21.6167 15.6725 20.9835 15.282 20.593C14.8915 20.2025 14.2583 20.2025 13.8678 20.593L8.21094 26.2499L2.55408 20.593C2.16356 20.2025 1.53039 20.2025 1.13987 20.593C0.749344 20.9835 0.749344 21.6167 1.13987 22.0072L7.50383 28.3712ZM8.21094 0.682617L7.21094 0.682617L7.21094 27.6641L8.21094 27.6641L9.21094 27.6641L9.21094 0.682617L8.21094 0.682617Z" fill="url(#paint0_linear_2070_152068)"/>
<defs>
<linearGradient id="paint0_linear_2070_152068" x1="7.71094" y1="0.682617" x2="7.71094" y2="27.6641" gradientUnits="userSpaceOnUse">
<stop stop-color="#624DE3" stop-opacity="0"/>
<stop offset="0.533654" stop-color="#624DE3"/>
<stop offset="0.980769" stop-color="#624DE3" stop-opacity="0"/>
</linearGradient>
</defs>
</svg>
