<svg width="24" height="24" viewBox="0 0 24 24" fill="none" xmlns="http://www.w3.org/2000/svg">
<path d="M12.0005 2.3999C10.0909 2.3999 8.2596 3.15847 6.90934 4.50873C5.55908 5.859 4.80051 7.69034 4.80051 9.5999V13.9029L3.95251 14.7519C3.7849 14.9197 3.67078 15.1334 3.62456 15.3661C3.57835 15.5987 3.60211 15.8398 3.69285 16.059C3.78359 16.2781 3.93723 16.4655 4.13438 16.5973C4.33152 16.7292 4.56332 16.7997 4.80051 16.7999H19.2005C19.4375 16.7992 19.669 16.7284 19.8658 16.5965C20.0626 16.4645 20.216 16.2773 20.3067 16.0584C20.3973 15.8394 20.4212 15.5985 20.3753 15.3661C20.3293 15.1336 20.2156 14.9199 20.0485 14.7519L19.2005 13.9029V9.5999C19.2005 7.69034 18.4419 5.859 17.0917 4.50873C15.7414 3.15847 13.9101 2.3999 12.0005 2.3999ZM12.0005 21.5999C11.0457 21.5999 10.1301 21.2206 9.45492 20.5455C8.77979 19.8704 8.40051 18.9547 8.40051 17.9999H15.6005C15.6005 18.9547 15.2212 19.8704 14.5461 20.5455C13.871 21.2206 12.9553 21.5999 12.0005 21.5999Z" fill="white"/>
</svg>
