<svg width="24" height="25" viewBox="0 0 24 25" fill="none" xmlns="http://www.w3.org/2000/svg">
<path d="M19.6505 13.14L14.6225 7.23755C14.5293 7.12829 14.4138 7.04037 14.2836 6.97976C14.1534 6.91914 14.0117 6.88725 13.8682 6.88625C13.7246 6.88526 13.5825 6.91518 13.4515 6.97398C13.3205 7.03279 13.2037 7.1191 13.109 7.22705L7.93851 13.1295C7.77796 13.3128 7.68945 13.5482 7.68945 13.7918C7.68945 14.0354 7.77796 14.2708 7.93851 14.454L13.1105 20.3401C13.2052 20.4475 13.3218 20.5334 13.4525 20.5919C13.5832 20.6504 13.725 20.6801 13.8682 20.6791C14.0113 20.6781 14.1527 20.6464 14.2825 20.5861C14.4124 20.5258 14.5278 20.4383 14.621 20.3296L19.6505 14.4435C19.8058 14.2616 19.8911 14.0303 19.8911 13.791C19.8911 13.5518 19.8058 13.3205 19.6505 13.1385" fill="url(#paint0_linear_4468_64)" fill-opacity="0.3"/>
<path d="M2.73235 14.4465C2.57007 14.2635 2.48047 14.0274 2.48047 13.7828C2.48047 13.5382 2.57007 13.3021 2.73235 13.119L8.91985 6.14253C9.31735 5.69403 10.0178 5.69403 10.4168 6.14253L16.6028 13.1205C16.7651 13.3035 16.8547 13.5397 16.8547 13.7843C16.8547 14.0289 16.7651 14.265 16.6028 14.448L10.4168 21.426C10.0178 21.8745 9.31735 21.8745 8.91985 21.426L2.73235 14.4465Z" fill="#F1F2F4"/>
<path fill-rule="evenodd" clip-rule="evenodd" d="M19.1543 8.35645C19.1543 8.55536 19.2333 8.74612 19.374 8.88678C19.5146 9.02743 19.7054 9.10645 19.9043 9.10645C20.1032 9.10645 20.294 9.02743 20.4346 8.88678C20.5753 8.74612 20.6543 8.55536 20.6543 8.35645V7.23145H21.7793C21.9782 7.23145 22.169 7.15243 22.3096 7.01178C22.4503 6.87112 22.5293 6.68036 22.5293 6.48145C22.5293 6.28253 22.4503 6.09177 22.3096 5.95112C22.169 5.81046 21.9782 5.73145 21.7793 5.73145H20.6543V4.60645C20.6543 4.40753 20.5753 4.21677 20.4346 4.07612C20.294 3.93546 20.1032 3.85645 19.9043 3.85645C19.7054 3.85645 19.5146 3.93546 19.374 4.07612C19.2333 4.21677 19.1543 4.40753 19.1543 4.60645V5.73145H18.0293C17.8304 5.73145 17.6396 5.81046 17.499 5.95112C17.3583 6.09177 17.2793 6.28253 17.2793 6.48145C17.2793 6.68036 17.3583 6.87112 17.499 7.01178C17.6396 7.15243 17.8304 7.23145 18.0293 7.23145H19.1543V8.35645Z" fill="#F1F2F4"/>
<defs>
<linearGradient id="paint0_linear_4468_64" x1="14.2715" y1="13.7835" x2="10.172" y2="13.7835" gradientUnits="userSpaceOnUse">
<stop stop-color="white"/>
<stop offset="1" stop-color="white" stop-opacity="0"/>
</linearGradient>
</defs>
</svg>
