<svg width="101" height="97" viewBox="0 0 101 97" fill="none" xmlns="http://www.w3.org/2000/svg">
<path d="M100.53 6.92779C100.823 6.6349 100.823 6.16002 100.53 5.86713L95.7574 1.09416C95.4645 0.801267 94.9896 0.801267 94.6967 1.09416C94.4038 1.38705 94.4038 1.86193 94.6967 2.15482L98.9393 6.39746L94.6967 10.6401C94.4038 10.933 94.4038 11.4079 94.6967 11.7008C94.9896 11.9937 95.4645 11.9937 95.7574 11.7008L100.53 6.92779ZM0 95.3975V96.1475H6.99255V95.3975V94.6475H0V95.3975ZM95.9925 6.39746V7.14746H100V6.39746V5.64746H95.9925V6.39746ZM51.4925 50.8975H52.2425C52.2425 26.735 71.8301 7.14746 95.9925 7.14746V6.39746V5.64746C71.0017 5.64746 50.7425 25.9066 50.7425 50.8975H51.4925ZM6.99255 95.3975V96.1475C31.9834 96.1475 52.2425 75.8883 52.2425 50.8975H51.4925H50.7425C50.7425 75.0599 31.155 94.6475 6.99255 94.6475V95.3975Z" fill="black" fill-opacity="0.12"/>
</svg>
