<svg width="101" height="96" viewBox="0 0 101 96" fill="none" xmlns="http://www.w3.org/2000/svg">
<path d="M100.53 89.8671C100.823 90.16 100.823 90.6349 100.53 90.9278L95.7574 95.7008C95.4645 95.9937 94.9896 95.9937 94.6967 95.7008C94.4038 95.4079 94.4038 94.933 94.6967 94.6401L98.9393 90.3975L94.6967 86.1548C94.4038 85.8619 94.4038 85.3871 94.6967 85.0942C94.9896 84.8013 95.4645 84.8013 95.7574 85.0942L100.53 89.8671ZM0 1.39746V0.647461H6.99255V1.39746V2.14746H0V1.39746ZM95.9925 90.3975V89.6475H100V90.3975V91.1475H95.9925V90.3975ZM51.4925 45.8975H52.2425C52.2425 70.0599 71.8301 89.6475 95.9925 89.6475V90.3975V91.1475C71.0017 91.1475 50.7425 70.8883 50.7425 45.8975H51.4925ZM6.99255 1.39746V0.647461C31.9834 0.647461 52.2425 20.9066 52.2425 45.8975H51.4925H50.7425C50.7425 21.735 31.155 2.14746 6.99255 2.14746V1.39746Z" fill="black" fill-opacity="0.12"/>
</svg>
