<svg width="24" height="25" viewBox="0 0 24 25" fill="none" xmlns="http://www.w3.org/2000/svg">
<path d="M10.8562 3.63783C10.9957 3.15783 11.6752 3.15783 11.8162 3.63783L12.3892 5.59983C12.7427 6.80795 13.3946 7.90767 14.2848 8.79763C15.1751 9.68759 16.275 10.3392 17.4832 10.6923L19.4452 11.2668C19.9252 11.4063 19.9252 12.0858 19.4452 12.2268L17.4832 12.7998C16.2748 13.1531 15.1748 13.8049 14.2845 14.6952C13.3943 15.5854 12.7425 16.6854 12.3892 17.8938L11.8162 19.8558C11.6752 20.3358 10.9957 20.3358 10.8562 19.8558L10.2817 17.8938C9.92853 16.6856 9.27695 15.5857 8.38699 14.6955C7.49702 13.8053 6.39731 13.1533 5.18919 12.7998L3.22719 12.2268C2.74719 12.0858 2.74719 11.4063 3.22719 11.2668L5.18919 10.6908C6.39714 10.3375 7.49674 9.68578 8.38668 8.79583C9.27663 7.90588 9.92831 6.80628 10.2817 5.59833L10.8562 3.63783Z" fill="#F1F2F4"/>
<path d="M18.5452 14.5864C18.5962 14.4139 18.8407 14.4139 18.8902 14.5864L19.1632 15.5179C19.2868 15.941 19.515 16.3262 19.8267 16.6379C20.1384 16.9496 20.5236 17.1778 20.9467 17.3014L21.8767 17.5729C22.0507 17.6239 22.0507 17.8684 21.8767 17.9179L20.9467 18.1909C20.5236 18.3145 20.1384 18.5427 19.8267 18.8544C19.515 19.1661 19.2868 19.5513 19.1632 19.9744L18.8917 20.9044C18.8407 21.0784 18.5962 21.0784 18.5467 20.9044L18.2737 19.9744C18.1501 19.5513 17.9219 19.1661 17.6102 18.8544C17.2985 18.5427 16.9133 18.3145 16.4902 18.1909L15.5602 17.9194C15.3862 17.8684 15.3862 17.6239 15.5602 17.5744L16.4902 17.3014C16.9133 17.1778 17.2985 16.9496 17.6102 16.6379C17.9219 16.3262 18.1501 15.941 18.2737 15.5179L18.5452 14.5864Z" fill="#F1F2F4" fill-opacity="0.5"/>
</svg>
