<svg width="24" height="25" viewBox="0 0 24 25" fill="none" xmlns="http://www.w3.org/2000/svg">
<path d="M14.74 9.0679L14.394 18.0679M9.606 18.0679L9.26 9.0679M19.228 5.8579C19.57 5.9099 19.91 5.9649 20.25 6.0239M19.228 5.8579L18.16 19.7409C18.1164 20.3061 17.8611 20.8341 17.445 21.2192C17.029 21.6042 16.4829 21.8181 15.916 21.8179H8.084C7.5171 21.8181 6.97102 21.6042 6.55498 21.2192C6.13894 20.8341 5.88359 20.3061 5.84 19.7409L4.772 5.8579M19.228 5.8579C18.0739 5.68342 16.9138 5.551 15.75 5.4609M4.772 5.8579C4.43 5.9089 4.09 5.9639 3.75 6.0229M4.772 5.8579C5.92613 5.68342 7.08623 5.551 8.25 5.4609M15.75 5.4609V4.5449C15.75 3.3649 14.84 2.3809 13.66 2.3439C12.5536 2.30854 11.4464 2.30854 10.34 2.3439C9.16 2.3809 8.25 3.3659 8.25 4.5449V5.4609M15.75 5.4609C13.2537 5.26798 10.7463 5.26798 8.25 5.4609" stroke="white" stroke-width="1.5" stroke-linecap="round" stroke-linejoin="round"/>
</svg>
