<svg width="24" height="25" viewBox="0 0 24 25" fill="none" xmlns="http://www.w3.org/2000/svg">
<path d="M9.00781 19.5039L12.0078 22.5039L15.0078 19.5039" stroke="white" stroke-width="2" stroke-linecap="round" stroke-linejoin="round"/>
<path d="M12.0078 22.5039V10.5039" stroke="white" stroke-width="2" stroke-linecap="round" stroke-linejoin="round"/>
<path d="M7.00838 16.5034C6.02339 16.5045 5.07263 16.1422 4.33824 15.4858C3.60386 14.8293 3.13749 13.925 3.02849 12.9461C2.91948 11.9672 3.17551 10.9824 3.74751 10.1806C4.31951 9.37868 5.16727 8.81604 6.12838 8.60045C5.8503 7.30354 6.0988 5.94928 6.81922 4.83559C7.53964 3.72191 8.67297 2.94002 9.96988 2.66195C11.2668 2.38387 12.621 2.63237 13.7347 3.35279C14.8484 4.07321 15.6303 5.20654 15.9084 6.50345H16.0084C17.2483 6.5022 18.4445 6.96173 19.3647 7.79282C20.2849 8.62391 20.8635 9.76728 20.9881 11.0009C21.1127 12.2346 20.7745 13.4706 20.0391 14.4689C19.3037 15.4672 18.2235 16.1567 17.0084 16.4034" stroke="white" stroke-width="2" stroke-linecap="round" stroke-linejoin="round"/>
</svg>
