<svg width="20" height="23" viewBox="0 0 20 23" fill="none" xmlns="http://www.w3.org/2000/svg">
<path fill-rule="evenodd" clip-rule="evenodd" d="M0.400391 11.1415C0.400391 12.2554 0.842889 13.3237 1.63054 14.1113C2.41819 14.899 3.48648 15.3415 4.60039 15.3415H8.80039V18.4445L7.24839 16.8935C7.02091 16.6815 6.72004 16.5661 6.40915 16.5716C6.09827 16.5771 5.80166 16.703 5.5818 16.9229C5.36193 17.1427 5.236 17.4394 5.23051 17.7502C5.22503 18.0611 5.34042 18.362 5.55239 18.5895L9.15239 22.1895C9.37739 22.4142 9.68239 22.5404 10.0004 22.5404C10.3184 22.5404 10.6234 22.4142 10.8484 22.1895L14.4484 18.5895C14.6604 18.362 14.7758 18.0611 14.7703 17.7502C14.7648 17.4394 14.6388 17.1427 14.419 16.9229C14.1991 16.703 13.9025 16.5771 13.5916 16.5716C13.2807 16.5661 12.9799 16.6815 12.7524 16.8935L11.2004 18.4445V15.3415H14.2004C14.9402 15.3405 15.6719 15.1876 16.3501 14.8921C17.0284 14.5967 17.6387 14.165 18.1432 13.6239C18.6477 13.0828 19.0356 12.4438 19.2829 11.7466C19.5302 11.0493 19.6316 10.3087 19.5808 9.57064C19.5299 8.83258 19.328 8.11284 18.9875 7.45606C18.647 6.79928 18.1752 6.21947 17.6013 5.7526C17.0274 5.28573 16.3638 4.94175 15.6514 4.74202C14.9391 4.54228 14.1933 4.49104 13.4604 4.59148C13.3179 3.96662 13.0517 3.37662 12.6776 2.85625C12.3034 2.33588 11.8289 1.89566 11.282 1.56155C10.7351 1.22744 10.1268 1.0062 9.49301 0.910854C8.85923 0.815511 8.21278 0.848002 7.59176 1.00641C6.97075 1.16482 6.38772 1.44594 5.87705 1.83321C5.36638 2.22047 4.9384 2.70605 4.61833 3.26131C4.29826 3.81657 4.09259 4.43029 4.01342 5.06629C3.93426 5.70228 3.98321 6.34769 4.15739 6.96448C3.12589 7.07388 2.17137 7.56113 1.4777 8.33235C0.784029 9.10356 0.400285 10.1042 0.400391 11.1415ZM11.2004 15.3415H8.80039V9.34148C8.80039 9.02322 8.92682 8.71799 9.15186 8.49295C9.37691 8.2679 9.68213 8.14148 10.0004 8.14148C10.3187 8.14148 10.6239 8.2679 10.8489 8.49295C11.074 8.71799 11.2004 9.02322 11.2004 9.34148V15.3415Z" fill="white"/>
</svg>
