<svg width="20" height="18" viewBox="0 0 20 18" fill="none" xmlns="http://www.w3.org/2000/svg">
<path d="M1.34249 3.78193C1.6257 3.09831 2.07313 2.49508 2.64514 2.02566C3.21715 1.55624 3.89609 1.23512 4.62183 1.09074C5.34758 0.946362 6.09773 0.983181 6.80585 1.19794C7.51396 1.41269 8.1582 1.79875 8.68149 2.32193L9.99949 3.63993L11.3175 2.32193C11.7354 1.90407 12.2314 1.5726 12.7774 1.34645C13.3234 1.1203 13.9085 1.00391 14.4995 1.00391C15.0904 1.00391 15.6756 1.1203 16.2216 1.34645C16.7675 1.5726 17.2636 1.90407 17.6815 2.32193C18.0994 2.7398 18.4308 3.23588 18.657 3.78185C18.8831 4.32782 18.9995 4.91298 18.9995 5.50393C18.9995 6.09489 18.8831 6.68005 18.657 7.22602C18.4308 7.77199 18.0994 8.26807 17.6815 8.68593L9.99949 16.3679L2.31749 8.68593C1.68836 8.05648 1.25995 7.25464 1.08641 6.38177C0.912865 5.5089 1.00198 4.60417 1.34249 3.78193Z" stroke="white" stroke-width="2" stroke-linecap="round" stroke-linejoin="round"/>
</svg>
