<svg width="20" height="20" viewBox="0 0 20 20" fill="none" xmlns="http://www.w3.org/2000/svg">
<path fill-rule="evenodd" clip-rule="evenodd" d="M10 0.25C4.615 0.25 0.25 4.615 0.25 10C0.25 15.385 4.615 19.75 10 19.75C15.385 19.75 19.75 15.385 19.75 10C19.75 4.615 15.385 0.25 10 0.25ZM4.262 4.072C3.04499 5.25031 2.2202 6.77469 1.89967 8.43805C1.57914 10.1014 1.77841 11.8231 2.47041 13.3693C3.16242 14.9155 4.3136 16.2112 5.76758 17.0803C7.22157 17.9495 8.90786 18.35 10.5974 18.2275C12.2869 18.105 13.8978 17.4653 15.2111 16.3954C16.5245 15.3256 17.4767 13.8774 17.9383 12.2475C18.4 10.6177 18.3488 8.88522 17.7916 7.28551C17.2344 5.6858 16.1983 4.29638 14.824 3.306C14.4858 3.84661 14.0365 4.30916 13.506 4.663L12.25 5.5L12.415 5.83C12.4909 5.98192 12.5171 6.15388 12.4899 6.32152C12.4626 6.48916 12.3833 6.64396 12.2631 6.764C12.143 6.88404 11.9881 6.96322 11.8204 6.99032C11.6528 7.01742 11.4808 6.99107 11.329 6.915L10.725 6.613C10.514 6.50745 10.2751 6.47094 10.0421 6.50863C9.80919 6.54632 9.594 6.65629 9.427 6.823L9.295 6.954C8.856 7.394 8.856 8.106 9.295 8.545L9.591 8.841C9.847 9.098 10.213 9.215 10.571 9.155L11.741 8.96C12.064 8.906 12.395 8.996 12.646 9.205L13.976 10.313C14.296 10.58 14.436 11.007 14.334 11.413C13.9514 12.9421 13.1606 14.3385 12.046 15.453L11.323 16.177C11.156 16.3437 10.9408 16.4537 10.7079 16.4914C10.4749 16.5291 10.236 16.4925 10.025 16.387L9.872 16.311C9.68514 16.2176 9.52798 16.074 9.41813 15.8963C9.30827 15.7187 9.25005 15.5139 9.25 15.305V14.216C9.25 13.918 9.131 13.631 8.92 13.42L7.573 12.073C7.40629 11.906 7.29632 11.6908 7.25863 11.4579C7.22094 11.2249 7.25745 10.986 7.363 10.775L7.75 10L6.11 8.36C5.2255 7.47557 4.63951 6.33682 4.434 5.103L4.262 4.072Z" fill="white" fill-opacity="0.99"/>
</svg>
