<svg width="34" height="34" viewBox="0 0 34 34" fill="none" xmlns="http://www.w3.org/2000/svg">
<path d="M27.1377 15.1802L17.7263 6.89614C17.5096 6.70565 17.231 6.60059 16.9425 6.60059C16.654 6.60059 16.3754 6.70565 16.1588 6.89614L6.74732 15.1802C5.92539 15.9024 6.43667 17.2577 7.53042 17.2577H8.55557V24.3794C8.55557 25.6893 9.61696 26.752 10.9282 26.752H22.9569C24.2668 26.752 25.3295 25.6906 25.3295 24.3794V17.2577H26.3533C27.4484 17.2577 27.9584 15.9024 27.1377 15.1802Z" stroke="#8267EC" stroke-width="1.94157" stroke-linejoin="round"/>
<path d="M13.5137 22.2554C14.355 22.9556 15.5769 23.397 16.9386 23.397C18.2977 23.397 19.5209 22.9569 20.3622 22.2554" stroke="#8267EC" stroke-width="1.94157" stroke-linecap="round"/>
</svg>
