<svg width="61" height="12" viewBox="0 0 61 12" fill="none" xmlns="http://www.w3.org/2000/svg">
<path d="M60.5303 6.92779C60.8232 6.63489 60.8232 6.16002 60.5303 5.86713L55.7574 1.09416C55.4645 0.801262 54.9896 0.801262 54.6967 1.09416C54.4038 1.38705 54.4038 1.86192 54.6967 2.15482L58.9393 6.39746L54.6967 10.6401C54.4038 10.933 54.4038 11.4079 54.6967 11.7008C54.9896 11.9937 55.4645 11.9937 55.7574 11.7008L60.5303 6.92779ZM0 6.39746L6.55671e-08 7.14746L60 7.14746L60 6.39746L60 5.64746L-6.55671e-08 5.64746L0 6.39746Z" fill="black" fill-opacity="0.12"/>
<path d="M60.5303 6.92779C60.8232 6.63489 60.8232 6.16002 60.5303 5.86713L55.7574 1.09416C55.4645 0.801262 54.9896 0.801262 54.6967 1.09416C54.4038 1.38705 54.4038 1.86192 54.6967 2.15482L58.9393 6.39746L54.6967 10.6401C54.4038 10.933 54.4038 11.4079 54.6967 11.7008C54.9896 11.9937 55.4645 11.9937 55.7574 11.7008L60.5303 6.92779ZM0 6.39746L6.55671e-08 7.14746L60 7.14746L60 6.39746L60 5.64746L-6.55671e-08 5.64746L0 6.39746Z" fill="url(#paint0_linear_2070_151503)"/>
<defs>
<linearGradient id="paint0_linear_2070_151503" x1="4.37114e-08" y1="6.89746" x2="60" y2="6.89746" gradientUnits="userSpaceOnUse">
<stop stop-color="#624DE3" stop-opacity="0"/>
<stop offset="0.533654" stop-color="#624DE3"/>
<stop offset="0.980769" stop-color="#624DE3" stop-opacity="0"/>
</linearGradient>
</defs>
</svg>
