<svg width="25" height="25" viewBox="0 0 25 25" fill="none" xmlns="http://www.w3.org/2000/svg">
<path fill-rule="evenodd" clip-rule="evenodd" d="M12.2402 20.7021C14.5277 20.7021 16.7215 19.7934 18.339 18.1759C19.9565 16.5584 20.8652 14.3646 20.8652 12.0771C20.8652 9.78966 19.9565 7.59585 18.339 5.97835C16.7215 4.36085 14.5277 3.45215 12.2402 3.45215C9.95274 3.45215 7.75894 4.36085 6.14144 5.97835C4.52394 7.59585 3.61523 9.78966 3.61523 12.0771C3.61523 14.3646 4.52394 16.5584 6.14144 18.1759C7.75894 19.7934 9.95274 20.7021 12.2402 20.7021ZM13.0652 8.32715C13.0652 8.10834 12.9783 7.8985 12.8236 7.74379C12.6689 7.58907 12.459 7.50215 12.2402 7.50215C12.0214 7.50215 11.8116 7.58907 11.6569 7.74379C11.5022 7.8985 11.4152 8.10834 11.4152 8.32715V15.8271C11.4152 16.046 11.5022 16.2558 11.6569 16.4105C11.8116 16.5652 12.0214 16.6521 12.2402 16.6521C12.459 16.6521 12.6689 16.5652 12.8236 16.4105C12.9783 16.2558 13.0652 16.046 13.0652 15.8271V8.32715ZM15.6497 9.70715C15.6497 9.48834 15.5628 9.2785 15.4081 9.12379C15.2534 8.96907 15.0435 8.88215 14.8247 8.88215C14.6059 8.88215 14.3961 8.96907 14.2414 9.12379C14.0867 9.2785 13.9997 9.48834 13.9997 9.70715V14.7066C13.9997 14.9255 14.0867 15.1353 14.2414 15.29C14.3961 15.4447 14.6059 15.5316 14.8247 15.5316C15.0435 15.5316 15.2534 15.4447 15.4081 15.29C15.5628 15.1353 15.6497 14.9255 15.6497 14.7066V9.70715ZM10.4972 9.70715C10.4972 9.48834 10.4103 9.2785 10.2556 9.12379C10.1009 8.96907 9.89104 8.88215 9.67223 8.88215C9.45343 8.88215 9.24359 8.96907 9.08887 9.12379C8.93415 9.2785 8.84723 9.48834 8.84723 9.70715V14.7066C8.84723 14.815 8.86857 14.9223 8.91003 15.0224C8.95149 15.1225 9.01226 15.2134 9.08887 15.29C9.16548 15.3666 9.25643 15.4274 9.35652 15.4688C9.45661 15.5103 9.56389 15.5316 9.67223 15.5316C9.78058 15.5316 9.88785 15.5103 9.98795 15.4688C10.088 15.4274 10.179 15.3666 10.2556 15.29C10.3322 15.2134 10.393 15.1225 10.4344 15.0224C10.4759 14.9223 10.4972 14.815 10.4972 14.7066V9.70715ZM7.95173 11.0541C7.95173 10.8353 7.86482 10.6255 7.7101 10.4708C7.55538 10.3161 7.34554 10.2291 7.12673 10.2291C6.90793 10.2291 6.69809 10.3161 6.54337 10.4708C6.38865 10.6255 6.30173 10.8353 6.30173 11.0541V13.1631C6.30173 13.382 6.38865 13.5918 6.54337 13.7465C6.69809 13.9012 6.90793 13.9881 7.12673 13.9881C7.34554 13.9881 7.55538 13.9012 7.7101 13.7465C7.86482 13.5918 7.95173 13.382 7.95173 13.1631V11.0541ZM18.2357 11.0541C18.2357 10.8353 18.1488 10.6255 17.9941 10.4708C17.8394 10.3161 17.6295 10.2291 17.4107 10.2291C17.1919 10.2291 16.9821 10.3161 16.8274 10.4708C16.6727 10.6255 16.5857 10.8353 16.5857 11.0541V13.1631C16.5857 13.382 16.6727 13.5918 16.8274 13.7465C16.9821 13.9012 17.1919 13.9881 17.4107 13.9881C17.6295 13.9881 17.8394 13.9012 17.9941 13.7465C18.1488 13.5918 18.2357 13.382 18.2357 13.1631V11.0541Z" fill="#FD2AB2"/>
</svg>
