<svg width="22" height="20" viewBox="0 0 22 20" fill="none" xmlns="http://www.w3.org/2000/svg">
<path d="M15.0796 0.478621C15.6306 0.545181 16.1436 0.83958 16.5222 1.31062L20.7166 6.53942C21.1181 7.04033 21.3326 7.70064 21.3144 8.37966C21.2962 9.05868 21.0467 9.70274 20.6191 10.1746L12.601 19.022L12.4297 19.1922C12.0273 19.555 11.5298 19.7522 11.0174 19.7522C10.5049 19.7522 10.0074 19.555 9.60504 19.1922L9.43368 19.022L1.41448 10.1746C1.01539 9.73387 0.770643 9.14192 0.726108 8.50971C0.681572 7.87749 0.840305 7.24842 1.17256 6.74038L1.31816 6.53942L5.51256 1.31062C5.88843 0.841351 6.40152 0.545424 6.95512 0.478621L7.19256 0.46582H14.8422L15.0796 0.478621ZM7.19256 2.38582C7.06724 2.38576 6.94505 2.43052 6.84312 2.51382L6.75016 2.60726L2.55688 7.83606C2.4514 7.9679 2.39509 8.14156 2.3999 8.32012C2.40471 8.49867 2.47027 8.66804 2.58264 8.79222L10.6007 17.6409L10.6937 17.7241C10.9233 17.8917 11.2313 17.8649 11.434 17.6396L19.4532 8.79222L19.5305 8.68726C19.5955 8.5786 19.6319 8.45086 19.6353 8.31925C19.6387 8.18764 19.6089 8.05769 19.5495 7.94486L19.4778 7.83606L15.2846 2.60726C15.2283 2.53735 15.1599 2.48157 15.0837 2.44345C15.0075 2.40533 14.9253 2.38571 14.8422 2.38582H7.19256Z" fill="white"/>
</svg>
