<svg width="12" height="12" viewBox="0 0 12 12" fill="none" xmlns="http://www.w3.org/2000/svg">
<path d="M5.94223 0.858398C6.43331 0.858398 6.83688 1.23308 6.88266 1.71216L6.88698 1.80315L6.88674 5.10931L10.1936 5.10978C10.7154 5.10978 11.1384 5.53276 11.1384 6.05453C11.1384 6.54561 10.7637 6.94918 10.2846 6.99496L10.1936 6.99928L6.88674 6.99905L6.88698 10.3059C6.88698 10.8277 6.464 11.2507 5.94223 11.2507C5.45115 11.2507 5.04758 10.876 5.0018 10.3969L4.99748 10.3059L4.997 6.99905L1.69085 6.99928C1.16907 6.99928 0.746094 6.5763 0.746094 6.05453C0.746094 5.56345 1.12077 5.15988 1.59986 5.11411L1.69085 5.10978L4.997 5.10931L4.99748 1.80315C4.99748 1.28138 5.42046 0.858398 5.94223 0.858398Z" fill="#EBEBF5" fill-opacity="0.6"/>
</svg>
