<svg width="22" height="22" viewBox="0 0 22 22" fill="none" xmlns="http://www.w3.org/2000/svg">
<path d="M9.33313 2.70002C9.7938 0.802467 12.4925 0.802468 12.9531 2.70002C13.2507 3.92582 14.6551 4.50753 15.7323 3.85118C17.3998 2.83515 19.3081 4.7434 18.292 6.41091C17.6357 7.4881 18.2174 8.89248 19.4432 9.19007C21.3407 9.65073 21.3407 12.3494 19.4432 12.8101C18.2174 13.1077 17.6357 14.512 18.292 15.5892C19.3081 17.2567 17.3998 19.165 15.7323 18.149C14.6551 17.4926 13.2507 18.0743 12.9531 19.3001C12.4925 21.1977 9.7938 21.1977 9.33313 19.3001C9.03555 18.0743 7.63117 17.4926 6.55398 18.149C4.88647 19.165 2.97822 17.2567 3.99425 15.5892C4.6506 14.512 4.06888 13.1077 2.84309 12.8101C0.945534 12.3494 0.945533 9.65073 2.84309 9.19007C4.06888 8.89248 4.65059 7.4881 3.99425 6.41091C2.97822 4.7434 4.88647 2.83515 6.55398 3.85118C7.63117 4.50753 9.03555 3.92581 9.33313 2.70002Z" stroke="white" stroke-width="1.72857" stroke-linecap="round" stroke-linejoin="round"/>
<path d="M14.3842 11.0001C14.3842 12.7901 12.9331 14.2411 11.1431 14.2411C9.35314 14.2411 7.90206 12.7901 7.90206 11.0001C7.90206 9.21007 9.35314 7.759 11.1431 7.759C12.9331 7.759 14.3842 9.21007 14.3842 11.0001Z" stroke="white" stroke-width="1.72857" stroke-linecap="round" stroke-linejoin="round"/>
</svg>
