<svg width="25" height="25" viewBox="0 0 25 25" fill="none" xmlns="http://www.w3.org/2000/svg">
<path d="M11.0671 3.11928C11.2066 2.63928 11.8861 2.63928 12.0271 3.11928L12.6001 5.08128C12.9536 6.2894 13.6055 7.38911 14.4958 8.27907C15.386 9.16904 16.4859 9.82062 17.6941 10.1738L19.6561 10.7483C20.1361 10.8878 20.1361 11.5673 19.6561 11.7083L17.6941 12.2813C16.4857 12.6346 15.3857 13.2864 14.4955 14.1766C13.6052 15.0669 12.9534 16.1669 12.6001 17.3753L12.0271 19.3373C11.8861 19.8173 11.2066 19.8173 11.0671 19.3373L10.4926 17.3753C10.1395 16.167 9.48788 15.0671 8.59792 14.1769C7.70796 13.2867 6.60825 12.6348 5.40013 12.2813L3.43812 11.7083C2.95813 11.5673 2.95813 10.8878 3.43812 10.7483L5.40013 10.1723C6.60807 9.8189 7.70767 9.16722 8.59762 8.27727C9.48757 7.38733 10.1392 6.28773 10.4926 5.07978L11.0671 3.11928Z" fill="#FD2AB2"/>
<path d="M18.7561 14.0679C18.8071 13.8954 19.0516 13.8954 19.1011 14.0679L19.3741 14.9994C19.4977 15.4225 19.7259 15.8076 20.0376 16.1193C20.3493 16.431 20.7345 16.6592 21.1576 16.7829L22.0876 17.0544C22.2616 17.1054 22.2616 17.3499 22.0876 17.3994L21.1576 17.6724C20.7345 17.796 20.3493 18.0242 20.0376 18.3359C19.7259 18.6476 19.4977 19.0327 19.3741 19.4559L19.1026 20.3859C19.0516 20.5599 18.8071 20.5599 18.7576 20.3859L18.4846 19.4559C18.361 19.0327 18.1328 18.6476 17.8211 18.3359C17.5094 18.0242 17.1242 17.796 16.7011 17.6724L15.7711 17.4009C15.5971 17.3499 15.5971 17.1054 15.7711 17.0559L16.7011 16.7829C17.1242 16.6592 17.5094 16.431 17.8211 16.1193C18.1328 15.8076 18.361 15.4225 18.4846 14.9994L18.7561 14.0679Z" fill="#7241D2" fill-opacity="0.5"/>
</svg>
