<svg width="24" height="24" viewBox="0 0 24 24" fill="none" xmlns="http://www.w3.org/2000/svg">
<path fill-rule="evenodd" clip-rule="evenodd" d="M0.75 5.25C0.75 2.76472 2.76472 0.75 5.25 0.75H18.75C21.2353 0.75 23.25 2.76472 23.25 5.25V15.75C23.25 18.2353 21.2353 20.25 18.75 20.25H14.9653L12.5644 22.9939C12.422 23.1566 12.2163 23.25 12 23.25C11.7837 23.25 11.578 23.1566 11.4356 22.9939L9.03469 20.25H5.25C2.76472 20.25 0.75 18.2353 0.75 15.75V5.25ZM12 5.25C12.3501 5.25 12.6537 5.49229 12.7313 5.83369L13.1463 7.65859C13.3382 8.50267 13.9973 9.16177 14.8414 9.3537L16.6663 9.76867C17.0077 9.8463 17.25 10.1499 17.25 10.5C17.25 10.8501 17.0077 11.1537 16.6663 11.2313L14.8414 11.6463C13.9973 11.8382 13.3382 12.4973 13.1463 13.3414L12.7313 15.1663C12.6537 15.5077 12.3501 15.75 12 15.75C11.6499 15.75 11.3463 15.5077 11.2687 15.1663L10.8537 13.3414C10.6618 12.4973 10.0027 11.8382 9.15859 11.6463L7.33369 11.2313C6.99229 11.1537 6.75 10.8501 6.75 10.5C6.75 10.1499 6.99229 9.8463 7.33369 9.76867L9.15859 9.3537C10.0027 9.16177 10.6618 8.50267 10.8537 7.65859L11.2687 5.83369C11.3463 5.49229 11.6499 5.25 12 5.25Z" fill="white"/>
</svg>
