<svg width="24" height="25" viewBox="0 0 24 25" fill="none" xmlns="http://www.w3.org/2000/svg">
<path fill-rule="evenodd" clip-rule="evenodd" d="M19.5195 18.829H19.5885C19.8643 18.829 20.1374 18.7747 20.3922 18.6692C20.647 18.5636 20.8785 18.4089 21.0735 18.2139C21.2685 18.0189 21.4231 17.7874 21.5287 17.5327C21.6342 17.2779 21.6885 17.0048 21.6885 16.729V8.55402C21.6891 8.08933 21.5356 7.63758 21.2519 7.26951C20.9683 6.90144 20.5705 6.63785 20.121 6.52002C20.166 6.69102 20.1885 6.86952 20.1885 7.05252V17.29C20.1885 17.8975 19.9305 18.4465 19.5195 18.829Z" fill="#F1F2F4" fill-opacity="0.2"/>
<path fill-rule="evenodd" clip-rule="evenodd" d="M16.8609 19.3718C17.3672 19.3061 17.8324 19.0582 18.1692 18.6745C18.506 18.2907 18.6915 17.7974 18.6909 17.2868V7.05225C18.6911 6.5419 18.5055 6.04893 18.1687 5.66549C17.8319 5.28204 17.367 5.03437 16.8609 4.96875C17.0394 5.27775 17.1414 5.63775 17.1414 6.02025V18.3203C17.1414 18.7043 17.0394 19.0628 16.8594 19.3733" fill="#F1F2F4" fill-opacity="0.4"/>
<path fill-rule="evenodd" clip-rule="evenodd" d="M4.24062 3.91895C3.68367 3.91895 3.14953 4.14019 2.7557 4.53402C2.36187 4.92785 2.14063 5.46199 2.14063 6.01895V18.3189C2.14062 18.8759 2.36187 19.41 2.7557 19.8039C3.14953 20.1977 3.68367 20.4189 4.24062 20.4189H13.5406C14.0976 20.4189 14.6317 20.1977 15.0255 19.8039C15.4194 19.41 15.6406 18.8759 15.6406 18.3189V6.01895C15.6406 5.46199 15.4194 4.92785 15.0255 4.53402C14.6317 4.14019 14.0976 3.91895 13.5406 3.91895H4.24062ZM11.1676 12.9324C11.2906 12.8504 11.3915 12.7394 11.4614 12.6091C11.5313 12.4788 11.568 12.3333 11.5683 12.1855C11.5686 12.0377 11.5324 11.892 11.4631 11.7615C11.3937 11.6309 11.2933 11.5195 11.1706 11.4369L8.31463 9.51095C8.17916 9.41938 8.02132 9.36645 7.85804 9.35784C7.69477 9.34922 7.53223 9.38525 7.38789 9.46205C7.24354 9.53885 7.12285 9.65351 7.03876 9.79374C6.95468 9.93396 6.91038 10.0944 6.91062 10.2579V14.0889C6.91065 14.2519 6.9549 14.4117 7.03865 14.5514C7.1224 14.6912 7.24251 14.8056 7.38617 14.8824C7.52983 14.9592 7.69164 14.9956 7.85436 14.9877C8.01709 14.9798 8.17461 14.9279 8.31012 14.8374L11.1676 12.9324Z" fill="#F1F2F4"/>
</svg>
