<svg width="13" height="16" viewBox="0 0 13 16" fill="none" xmlns="http://www.w3.org/2000/svg">
<path d="M3.56424 0.48C3.61908 0.340456 3.71413 0.220341 3.83732 0.134885C3.96052 0.04943 4.10632 0.00248386 4.25624 0H10.2462C10.8092 0 11.1762 0.633 10.9242 1.17L9.22024 4.805H11.7412C12.4172 4.805 12.7552 5.676 12.2772 6.185L3.30324 15.758C2.73724 16.362 1.79324 15.741 2.04824 14.931L3.96124 8.809H1.25924C1.13237 8.80871 1.00783 8.7749 0.898236 8.711C0.785768 8.64532 0.691563 8.55249 0.624236 8.441C0.554244 8.32662 0.512479 8.19722 0.502393 8.0635C0.492308 7.92978 0.514192 7.79559 0.566236 7.672L3.56424 0.48Z" fill="#EAB308"/>
</svg>
