<svg width="16" height="16" viewBox="0 0 16 16" fill="none" xmlns="http://www.w3.org/2000/svg">
<path d="M11.4296 4C11.4296 4.86195 11.0872 5.6886 10.4777 6.2981C9.86819 6.90759 9.04154 7.25 8.17959 7.25C7.31763 7.25 6.49098 6.90759 5.88149 6.2981C5.272 5.6886 4.92959 4.86195 4.92959 4C4.92959 3.13805 5.272 2.3114 5.88149 1.7019C6.49098 1.09241 7.31763 0.75 8.17959 0.75C9.04154 0.75 9.86819 1.09241 10.4777 1.7019C11.0872 2.3114 11.4296 3.13805 11.4296 4ZM3.02659 15.25H13.3316C14.4736 15.25 15.3536 14.268 14.8196 13.258C14.0366 11.773 12.2486 10 8.17959 10C4.11059 10 2.32259 11.773 1.53859 13.258C1.00559 14.268 1.88459 15.25 3.02659 15.25Z" stroke="white" stroke-width="1.5" stroke-linecap="round" stroke-linejoin="round"/>
</svg>
