<svg width="21" height="14" viewBox="0 0 21 14" fill="none" xmlns="http://www.w3.org/2000/svg">
<path fill-rule="evenodd" clip-rule="evenodd" d="M19.5062 4.51853C19.5275 4.52445 19.549 4.52945 19.5707 4.53353C19.7099 4.5423 19.8448 4.58542 19.9633 4.65904C20.0818 4.73266 20.1802 4.83449 20.2497 4.95543C20.3192 5.07637 20.3577 5.21264 20.3617 5.35209C20.3657 5.49153 20.3351 5.62979 20.2727 5.75453L20.2097 5.88053L20.2082 5.88353C19.1162 8.05103 16.5827 13.0745 10.2377 13.0745C7.06068 13.0745 4.84068 11.9465 3.26268 10.487C1.75218 9.08903 0.856683 7.40603 0.256683 6.27953L0.255183 6.27803L0.213183 6.19853C0.115957 6.01702 0.0885202 5.80621 0.13605 5.60587C0.183579 5.40553 0.302787 5.22951 0.471183 5.11103C0.674329 4.96838 0.890252 4.84485 1.11618 4.74203L1.15068 4.72553L1.16418 4.71953C1.31268 4.64903 1.44918 4.58453 1.64118 4.46603C2.07918 4.19603 2.83818 3.63803 4.42518 2.19503C5.58468 1.13753 6.67218 0.599026 7.80018 0.609526C8.69568 0.618526 9.48918 0.974026 10.2227 1.44053C10.7717 1.07753 11.4827 0.735526 12.3272 0.656026C13.5032 0.548026 14.7722 0.968026 16.0562 2.19803C17.4512 3.43403 18.3947 4.02203 18.9557 4.29803C19.1312 4.38953 19.3157 4.46303 19.5062 4.51853ZM7.56018 5.73203C7.41432 5.70809 7.26367 5.71312 7.11974 5.74683C6.97582 5.78054 6.83995 5.84227 6.71988 5.92849C6.59982 6.01471 6.49791 6.12373 6.41998 6.24933C6.34205 6.37494 6.28962 6.51466 6.26568 6.66053C6.24175 6.80639 6.24678 6.95554 6.28049 7.09946C6.3142 7.24339 6.37592 7.37926 6.46214 7.49932C6.63627 7.74181 6.89959 7.90519 7.19418 7.95353H7.20168L7.21668 7.95653L7.27218 7.96553C7.57114 8.01297 7.87123 8.05298 8.17218 8.08553C8.73618 8.14853 9.49968 8.21453 10.2392 8.21453C10.9787 8.21453 11.7392 8.14852 12.3062 8.08402C12.6069 8.05011 12.9069 8.0106 13.2062 7.96553L13.2602 7.95653L13.2752 7.95503L13.2827 7.95353C13.431 7.93253 13.5736 7.88214 13.7021 7.80531C13.8307 7.72848 13.9426 7.62675 14.0313 7.50609C14.1201 7.38543 14.1838 7.24827 14.2188 7.10266C14.2538 6.95704 14.2594 6.80589 14.2353 6.65809C14.2111 6.51028 14.1577 6.36879 14.0781 6.24191C13.9985 6.11503 13.8944 6.00531 13.7719 5.9192C13.6493 5.83308 13.5108 5.7723 13.3645 5.74042C13.2182 5.70853 13.0669 5.70619 12.9197 5.73353H12.9167L12.9077 5.73503L12.8627 5.74253C12.5936 5.78444 12.3235 5.81945 12.0527 5.84753C11.5277 5.90753 10.8587 5.96453 10.2377 5.96453C9.61818 5.96453 8.94918 5.90753 8.42268 5.84903C8.15255 5.81849 7.88301 5.78299 7.61418 5.74253L7.56918 5.73503L7.56018 5.73203Z" fill="#FD2AB2"/>
</svg>
