<svg width="22" height="13" viewBox="0 0 22 13" fill="none" xmlns="http://www.w3.org/2000/svg">
<path fill-rule="evenodd" clip-rule="evenodd" d="M20.2952 4.39597C20.3165 4.40189 20.338 4.40689 20.3597 4.41097C20.499 4.41974 20.6339 4.46286 20.7523 4.53648C20.8708 4.61011 20.9692 4.71193 21.0388 4.83287C21.1083 4.95381 21.1468 5.09009 21.1508 5.22953C21.1548 5.36897 21.1242 5.50724 21.0617 5.63197L20.9987 5.75797L20.9972 5.76097C19.9052 7.92847 17.3717 12.952 11.0267 12.952C7.84975 12.952 5.62975 11.824 4.05175 10.3645C2.54125 8.96647 1.64575 7.28347 1.04575 6.15697L1.04425 6.15547L1.00225 6.07597C0.905019 5.89446 0.877583 5.68366 0.925112 5.48331C0.972641 5.28297 1.09185 5.10695 1.26025 4.98847C1.46339 4.84582 1.67931 4.72229 1.90525 4.61947L1.93975 4.60297L1.95325 4.59697C2.10175 4.52647 2.23825 4.46197 2.43025 4.34347C2.86825 4.07347 3.62725 3.51547 5.21425 2.07247C6.37375 1.01497 7.46125 0.476467 8.58925 0.486967C9.48475 0.495967 10.2782 0.851467 11.0117 1.31797C11.5607 0.954967 12.2717 0.612967 13.1162 0.533467C14.2922 0.425467 15.5612 0.845467 16.8452 2.07547C18.2402 3.31147 19.1837 3.89947 19.7447 4.17547C19.9202 4.26697 20.1047 4.34047 20.2952 4.39597ZM8.34925 5.60947C8.20338 5.58553 8.05273 5.59056 7.90881 5.62427C7.76489 5.65798 7.62901 5.71971 7.50895 5.80593C7.38888 5.89215 7.28697 6.00117 7.20904 6.12677C7.13111 6.25238 7.07868 6.3921 7.05475 6.53797C7.03081 6.68383 7.03584 6.83298 7.06955 6.97691C7.10326 7.12083 7.16499 7.2567 7.25121 7.37677C7.42533 7.61925 7.68866 7.78263 7.98325 7.83097H7.99075L8.00575 7.83397L8.06125 7.84297C8.36021 7.89041 8.6603 7.93043 8.96125 7.96297C9.52525 8.02597 10.2887 8.09197 11.0282 8.09197C11.7677 8.09197 12.5282 8.02597 13.0952 7.96147C13.396 7.92755 13.696 7.88805 13.9952 7.84297L14.0492 7.83397L14.0642 7.83247L14.0717 7.83097C14.22 7.80998 14.3626 7.75959 14.4912 7.68275C14.6198 7.60592 14.7317 7.50419 14.8204 7.38353C14.9091 7.26288 14.9729 7.12571 15.0079 6.9801C15.0429 6.83448 15.0485 6.68334 15.0243 6.53553C15.0002 6.38772 14.9467 6.24623 14.8671 6.11935C14.7876 5.99247 14.6835 5.88275 14.5609 5.79664C14.4384 5.71052 14.2999 5.64974 14.1536 5.61786C14.0072 5.58598 13.856 5.58363 13.7087 5.61097H13.7057L13.6967 5.61247L13.6517 5.61997C13.3827 5.66188 13.1126 5.69689 12.8417 5.72497C12.3167 5.78497 11.6477 5.84197 11.0267 5.84197C10.4072 5.84197 9.73825 5.78497 9.21175 5.72647C8.94162 5.69593 8.67207 5.66043 8.40325 5.61997L8.35825 5.61247L8.34925 5.60947Z" fill="#F1F2F4"/>
</svg>
